<?xml version="1.0" encoding="UTF-8"?>
<!-- Created with Inkscape (http://www.inkscape.org/) -->
<svg width="112" height="112" version="1.1" viewBox="0 0 29.633 29.633" xmlns="http://www.w3.org/2000/svg">
  <g transform="translate(-333.1 -172.35)">
    <path d="m349.06 175.31a9.2245 9.2245 0 0 0-13.045 3.6e-4 9.2245 9.2245 0 0 0-3.7e-4 13.045 9.2245 9.2245 0 0 0 11.675 1.1284c0.0164 0.18137 0.0435 0.5201 0.0435 0.78527 7e-5 0.37569 0.4911 0.84116 0.4911 0.84116l10.267 10.267s0.31926 0.34493 0.69501 0.34494c0.37578 1e-5 0.60329-0.25688 0.60329-0.25688l2.4793-2.4793s0.25687-0.22754 0.25688-0.60329c-6e-5 -0.37569-0.34495-0.69501-0.34495-0.69501l-10.267-10.267s-0.46541-0.49109-0.84116-0.4911c-0.27851-2e-5 -0.6451-0.0305-0.81742-0.0464a9.2245 9.2245 0 0 0-1.1945-11.574zm-2.4055 2.4055a5.8229 5.8229 0 0 1 0 8.2348 5.8229 5.8229 0 0 1-8.2348 0 5.8229 5.8229 0 0 1 0-8.2348 5.8229 5.8229 0 0 1 8.2348 0z" fill="#989898" stroke-width=".26458"/>
  </g>
</svg>
